PathFileType	4	(X/Y/Z)	/Users/itak/Documents/Research/Walk-IL/dataset/trc/00054_00006.trc
DataRate	CameraRate	NumFrames	NumMarkers	Units	OrigDataRate	OrigDataStartFrame	OrigNumFrames
100.000000	100.000000	4	53	mm	100.000000	59	472
Frame#	Time	RPSI			LPSI			L3			STRN			T10			C7			CLAV			RBAK			LBAK			LSHO			LUPA			LAEL			LAOL			LWTS			LWPS			LFRA			LHPS			LHTS			RSHO			RUPA			RAEL			RAOL			RWTS			RWPS			RFRA			RIFD			RHTS			RHPS			RBHD			LFHD			RFHD			LBHD			LHIP			RHIP			RASI			LASI			LKNE			LTHI			LANK			LTIP			LTOE			LMT1			LMT5			LHEE			RKNE			RTHI			RANK			RTIP			RTOE			RMT1			RMT5			RHEE			LIFD			
		X1	Y1	Z1	X2	Y2	Z2	X3	Y3	Z3	X4	Y4	Z4	X5	Y5	Z5	X6	Y6	Z6	X7	Y7	Z7	X8	Y8	Z8	X9	Y9	Z9	X10	Y10	Z10	X11	Y11	Z11	X12	Y12	Z12	X13	Y13	Z13	X14	Y14	Z14	X15	Y15	Z15	X16	Y16	Z16	X17	Y17	Z17	X18	Y18	Z18	X19	Y19	Z19	X20	Y20	Z20	X21	Y21	Z21	X22	Y22	Z22	X23	Y23	Z23	X24	Y24	Z24	X25	Y25	Z25	X26	Y26	Z26	X27	Y27	Z27	X28	Y28	Z28	X29	Y29	Z29	X30	Y30	Z30	X31	Y31	Z31	X32	Y32	Z32	X33	Y33	Z33	X34	Y34	Z34	X35	Y35	Z35	X36	Y36	Z36	X37	Y37	Z37	X38	Y38	Z38	X39	Y39	Z39	X40	Y40	Z40	X41	Y41	Z41	X42	Y42	Z42	X43	Y43	Z43	X44	Y44	Z44	X45	Y45	Z45	X46	Y46	Z46	X47	Y47	Z47	X48	Y48	Z48	X49	Y49	Z49	X50	Y50	Z50	X51	Y51	Z51	X52	Y52	Z52	X53	Y53	Z53	

60	0.59	909.6629638671875	1022.558776855469	-201.8727874755859	896.7612915039062	1016.717712402344	-378.7055358886719	905.6903686523438	1073.798950195312	-295.7928771972656	1148.373168945312	1274.217041015625	-292.71337890625	882.9855346679688	1208.705200195312	-299.2548522949219	937.9074096679688	1475.942749023438	-306.1331176757812	1117.17626953125	1387.74267578125	-297.6510620117188	875.2081298828125	1338.234375	-229.5363616943359	919.172607421875	1435.72314453125	-406.7509765625	1024.522705078125	1438.612182617188	-476.2789916992188	1011.451354980469	1309.47802734375	-551.538818359375	1039.190185546875	1095.302978515625	-567.0593872070312	975.5586547851562	1079.652587890625	-483.0985107421875	1131.756103515625	856.4064331054688	-504.6572875976562	1075.262451171875	845.9514770507812	-566.1614379882812	1061.361206054688	986.9229125976562	-574.8435668945312	1108.977294921875	765.0252075195312	-561.8516845703125	1155.114868164062	774.7158813476562	-508.2028198242188	998.2587280273438	1441.804443359375	-127.3765258789062	987.3921508789062	1373.248413085938	-62.43886566162109	965.2141723632812	1104.522827148438	-41.00653076171875	984.385009765625	1085.461669921875	-136.2939147949219	1112.187133789062	855.740478515625	-82.26493072509766	1042.723876953125	840.9820556640625	-31.79696846008301	981.560302734375	1025.7041015625	-35.09205627441406	1110.532592773438	665.3729858398438	-102.7422943115234	1130.832275390625	750.1340942382812	-85.69706726074219	1075.490600585938	749.653564453125	-32.5319938659668	977.0698852539062	1652.279296875	-377.9039916992188	1120.570678710938	1690.214965820312	-219.6968383789062	1146.098999023438	1698.33056640625	-342.2184448242188	957.563232421875	1636.036987304688	-242.9561462402344	1008.751342773438	950.4420776367188	-463.2199096679688	973.280517578125	953.44580078125	-123.0137557983398	1096.99658203125	970.1072998046875	-143.2011871337891	1117.41357421875	961.0239868164062	-410.4739074707031	1072.935302734375	489.5636901855469	-415.7403869628906	1040.531982421875	628.3870239257812	-451.9072875976562	937.9719848632812	39.93597030639648	-432.3014831542969	998.27490234375	251.0530395507812	-438.11083984375	1143.66015625	31.55752944946289	-441.3607788085938	1098.6787109375	31.1620979309082	-383.7730102539062	1037.442993164062	29.84921646118164	-478.0159912109375	891.391357421875	36.49655532836914	-353.9128723144531	1040.618286132812	507.1711120605469	-139.7840423583984	1052.7060546875	777.8370971679688	-108.3938751220703	946.8671875	35.44600677490234	-140.2120208740234	1015.788208007812	387.3586120605469	-135.0562133789062	1163.563720703125	28.62125205993652	-175.4929046630859	1101.86767578125	34.04357147216797	-216.5596923828125	1071.539672851562	36.89828109741211	-124.2200927734375	899.0543212890625	36.90362548828125	-196.4678955078125	1143.046264648438	670.1019287109375	-482.4621276855469	
61	0.6	909.6505126953125	1022.564758300781	-201.9956817626953	896.8203125	1016.727172851562	-378.8352966308594	905.8258666992188	1073.805297851562	-295.9441528320312	1148.450073242188	1274.255249023438	-292.8676452636719	883.2062377929688	1208.716674804688	-299.3955383300781	937.9818725585938	1475.956909179688	-306.268310546875	1117.241455078125	1387.74755859375	-297.786865234375	875.2520751953125	1338.242919921875	-229.6458740234375	919.2632446289062	1435.726196289062	-406.901123046875	1024.634643554688	1438.585693359375	-476.4466552734375	1011.540283203125	1309.443725585938	-551.6452026367188	1039.25048828125	1095.2236328125	-567.0213623046875	975.5819091796875	1079.637939453125	-483.0908813476562	1131.904418945312	856.4515991210938	-504.310302734375	1075.459716796875	845.8604125976562	-565.8412475585938	1061.472412109375	986.8430786132812	-574.6903076171875	1109.214721679688	764.9869995117188	-561.3969116210938	1155.333251953125	774.7383422851562	-507.7693481445312	998.3670654296875	1441.8173828125	-127.5017471313477	987.4584350585938	1373.301391601562	-62.58170318603516	965.2335815429688	1104.602783203125	-41.026123046875	984.5397338867188	1085.48828125	-136.2957916259766	1112.23974609375	855.8157958984375	-82.11407470703125	1042.768676757812	841.0626220703125	-31.67621040344238	981.5892333984375	1025.779296875	-35.06131362915039	1110.573974609375	665.4195556640625	-102.5540618896484	1130.882934570312	750.2246704101562	-85.50016021728516	1075.516235351562	749.7495727539062	-32.38548278808594	977.1588745117188	1652.278686523438	-378.0702514648438	1120.640380859375	1690.199951171875	-219.8254547119141	1146.19580078125	1698.34423828125	-342.4447326660156	957.6384887695312	1636.052856445312	-243.1107482910156	1008.765075683594	950.3720703125	-463.3316345214844	973.1878051757812	953.462890625	-123.2114181518555	1096.9853515625	970.1038818359375	-143.3262176513672	1117.43603515625	960.9703979492188	-410.5543518066406	1072.968383789062	489.4986572265625	-415.7465209960938	1040.233276367188	628.3971557617188	-452.0601501464844	937.9798583984375	39.934326171875	-432.3005981445312	998.3306884765625	251.039306640625	-438.1212158203125	1143.66796875	31.55421257019043	-441.3575744628906	1098.685180664062	31.16135787963867	-383.7637329101562	1037.442626953125	29.85000801086426	-478.0146484375	891.4085083007812	36.49929809570312	-353.9132995605469	1040.787475585938	507.1711120605469	-139.8542785644531	1052.723876953125	777.8126831054688	-108.5488967895508	946.8712158203125	35.47459411621094	-140.2359161376953	1015.913452148438	387.3918762207031	-135.131103515625	1163.571655273438	28.61788558959961	-175.4960479736328	1101.877075195312	34.02886581420898	-216.5680236816406	1071.548828125	36.90232086181641	-124.2296447753906	899.06787109375	36.92831802368164	-196.4772338867188	1143.178833007812	670.0556640625	-482.1698913574219	
62	0.61	909.6394653320312	1022.573181152344	-202.1197814941406	896.8794555664062	1016.730834960938	-378.9640502929688	905.9652709960938	1073.811279296875	-296.103515625	1148.525268554688	1274.284423828125	-293.0126037597656	883.4146118164062	1208.726196289062	-299.5362243652344	938.0584106445312	1475.978393554688	-306.404052734375	1117.317138671875	1387.7666015625	-297.932373046875	875.2866821289062	1338.255249023438	-229.7631530761719	919.3616333007812	1435.730590820312	-407.0555725097656	1024.756958007812	1438.557250976562	-476.6121215820312	1011.647888183594	1309.410400390625	-551.7477416992188	1039.317016601562	1095.13671875	-566.9662475585938	975.6219482421875	1079.621704101562	-483.0707092285156	1132.057250976562	856.48974609375	-503.9201049804688	1075.662963867188	845.7584838867188	-565.4739379882812	1061.594482421875	986.7596435546875	-574.5050659179688	1109.458251953125	764.942626953125	-560.893310546875	1155.55615234375	774.7604370117188	-507.2796630859375	998.48974609375	1441.83349609375	-127.6133117675781	987.5093994140625	1373.356811523438	-62.72514724731445	965.2494506835938	1104.685791015625	-41.04121017456055	984.6846923828125	1085.515014648438	-136.2991027832031	1112.304077148438	855.903076171875	-81.94217681884766	1042.809936523438	841.1478881835938	-31.54855155944824	981.6155395507812	1025.858154296875	-35.02352142333984	1110.631591796875	665.47314453125	-102.3512191772461	1130.9306640625	750.3270263671875	-85.29010009765625	1075.54638671875	749.8513793945312	-32.22813415527344	977.2669067382812	1652.288940429688	-378.2387390136719	1120.720336914062	1690.169311523438	-219.9438323974609	1146.302490234375	1698.352783203125	-342.6626281738281	957.7224731445312	1636.077392578125	-243.2586822509766	1008.7158203125	950.3270263671875	-463.4621276855469	973.105712890625	953.4772338867188	-123.4106216430664	1096.977172851562	970.0997924804688	-143.4550018310547	1117.454345703125	960.920166015625	-410.6319580078125	1072.993408203125	489.4374694824219	-415.7626953125	1040.017822265625	628.3992309570312	-452.1959838867188	937.9880981445312	39.92951965332031	-432.3008422851562	998.3703002929688	251.0289306640625	-438.133544921875	1143.674072265625	31.55205917358398	-441.3553771972656	1098.689453125	31.16112899780273	-383.7569885253906	1037.443481445312	29.85038948059082	-478.0140380859375	891.4261474609375	36.49951934814453	-353.9126586914062	1040.94677734375	507.1706237792969	-139.9248962402344	1052.746948242188	777.7922973632812	-108.7157897949219	946.873779296875	35.50780487060547	-140.2619323730469	1016.034118652344	387.445556640625	-135.198974609375	1163.58056640625	28.61468887329102	-175.4987945556641	1101.886840820312	34.0142707824707	-216.5761260986328	1071.557373046875	36.90645980834961	-124.2381134033203	899.0808715820312	36.95272445678711	-196.4872741699219	1143.333862304688	670.0260620117188	-481.8171081542969	
63	0.62	909.6322631835938	1022.583862304688	-202.2451171875	896.9370727539062	1016.726013183594	-379.0917358398438	906.1046142578125	1073.816772460938	-296.268798828125	1148.597412109375	1274.302001953125	-293.1454162597656	883.6043090820312	1208.733154296875	-299.6763916015625	938.1355590820312	1476.0048828125	-306.5407104492188	1117.402587890625	1387.798828125	-298.0862731933594	875.3145751953125	1338.27001953125	-229.8904571533203	919.4666137695312	1435.734985351562	-407.213134765625	1024.888305664062	1438.52783203125	-476.7738342285156	1011.773559570312	1309.376342773438	-551.8463745117188	1039.391967773438	1095.043212890625	-566.89501953125	975.6776733398438	1079.60400390625	-483.0390319824219	1132.2158203125	856.5217895507812	-503.4921569824219	1075.869262695312	845.6458129882812	-565.06201171875	1061.728515625	986.6729125976562	-574.2908935546875	1109.707153320312	764.890869140625	-560.3446044921875	1155.778442382812	774.7789916992188	-506.7338256835938	998.6202392578125	1441.852416992188	-127.7147827148438	987.545654296875	1373.4130859375	-62.86814880371094	965.2614135742188	1104.770385742188	-41.05229568481445	984.8182983398438	1085.540161132812	-136.3036651611328	1112.378295898438	856.0006103515625	-81.75111389160156	1042.846313476562	841.2359619140625	-31.41509246826172	981.6373901367188	1025.939208984375	-34.97993087768555	1110.708251953125	665.5335693359375	-102.1313323974609	1130.977905273438	750.4395751953125	-85.06722259521484	1075.580200195312	749.9564819335938	-32.06129837036133	977.3917236328125	1652.308471679688	-378.4073486328125	1120.806884765625	1690.122192382812	-220.0518951416016	1146.421630859375	1698.357055664062	-342.8699340820312	957.8174438476562	1636.110473632812	-243.3984680175781	1008.633605957031	950.2998046875	-463.603515625	973.037109375	953.4882202148438	-123.6077651977539	1096.973266601562	970.0932006835938	-143.5864410400391	1117.47119140625	960.8762817382812	-410.7090148925781	1073.0107421875	489.3810119628906	-415.7898254394531	1039.899780273438	628.3916625976562	-452.3110961914062	937.9959716796875	39.92177963256836	-432.3024597167969	998.3951416015625	251.0217895507812	-438.1486511230469	1143.677856445312	31.55101013183594	-441.3544616699219	1098.691162109375	31.16134262084961	-383.7533569335938	1037.446044921875	29.85000991821289	-478.0144348144531	891.441650390625	36.49803924560547	-353.9107971191406	1041.092651367188	507.1693115234375	-139.9960479736328	1052.776977539062	777.7796630859375	-108.8915481567383	946.8751831054688	35.5431022644043	-140.2885437011719	1016.147216796875	387.5163269042969	-135.2601165771484	1163.589965820312	28.61167144775391	-175.5011596679688	1101.896362304688	34.00018692016602	-216.5841827392578	1071.565185546875	36.9105110168457	-124.2450256347656	899.0925903320312	36.97583389282227	-196.497314453125	1143.512329101562	670.0171508789062	-481.400146484375	
